<?xml version="1.0" encoding="utf-8"?>
<!-- Generator: Adobe Illustrator 21.0.0, SVG Export Plug-In . SVG Version: 6.00 Build 0)  -->
<svg version="1.1" id="图层_1" xmlns="http://www.w3.org/2000/svg" xmlns:xlink="http://www.w3.org/1999/xlink" x="0px" y="0px"
	 viewBox="0 0 300 300" style="enable-background:new 0 0 300 300;" xml:space="preserve">
<style type="text/css">
	.st0{fill:url(#SVGID_1_);}
	.st1{fill:url(#SVGID_2_);}
	.st2{fill:url(#SVGID_3_);}
	.st3{fill:url(#SVGID_4_);}
	.st4{fill:url(#SVGID_5_);}
	.st5{fill:url(#SVGID_6_);}
	.st6{fill:#FFFFFF;}
</style>
<g>
	
		<linearGradient id="SVGID_1_" gradientUnits="userSpaceOnUse" x1="-743.9639" y1="447.3469" x2="-744.2669" y2="447.1851" gradientTransform="matrix(365.4682 0 0 -204.371 272058.0625 91512.1328)">
		<stop  offset="0" style="stop-color:#F0FBFC"/>
		<stop  offset="1" style="stop-color:#B0E7ED"/>
	</linearGradient>
	<path class="st0" d="M53.2,142.4c-2.2-11.6-3-23.5-2.1-35.2c0.4-6,1.3-12.1,4.4-17.2c2.9-4.8,7.5-8.3,12.4-10.7
		c21.6-10.6,48.9-8.4,70,2.3c16.6,8.4,30.3,22.4,38.3,39.2c-14.6-11.7-33.6-17.7-52.3-17.1s-37.1,7.8-51.5,19.7
		c-7,5.8-13.1,12.6-19.2,19.4C53.3,142.6,53.2,142.5,53.2,142.4z"/>
	
		<linearGradient id="SVGID_2_" gradientUnits="userSpaceOnUse" x1="-742.1374" y1="442.6466" x2="-742.6188" y2="442.7079" gradientTransform="matrix(184.0303 -315.7529 -176.57 -102.9103 214866.7031 -188669.9688)">
		<stop  offset="0.2306" style="stop-color:#0DF9FF"/>
		<stop  offset="0.314" style="stop-color:#0FE6F2"/>
		<stop  offset="0.4828" style="stop-color:#15B6D0"/>
		<stop  offset="0.719" style="stop-color:#1D699A"/>
		<stop  offset="0.917" style="stop-color:#252369"/>
	</linearGradient>
	<path class="st1" d="M94.9,229.5c-11.1-3.9-21.8-9.3-31.5-15.9c-4.9-3.4-9.8-7.2-12.7-12.4c-2.7-4.9-3.4-10.6-3-16.1
		c1.7-24,17.4-46.5,37.2-59.4c15.6-10.1,34.6-14.9,53.2-13.4c-17.5,6.7-32.2,20.1-41.1,36.5s-11.9,36-8.9,54.4
		c1.5,9,4.3,17.7,7.1,26.4C95.2,229.6,95.1,229.6,94.9,229.5z"/>
	
		<linearGradient id="SVGID_3_" gradientUnits="userSpaceOnUse" x1="-743.47" y1="437.4733" x2="-743.7729" y2="437.3115" gradientTransform="matrix(-187.2399 -313.8603 -175.5116 104.7051 -62337.6758 -278980.2188)">
		<stop  offset="0" style="stop-color:#F0FBFC"/>
		<stop  offset="1" style="stop-color:#B0E7ED"/>
	</linearGradient>
	<path class="st2" d="M191.3,237c-8.8,7.9-18.6,14.6-29.2,19.9c-5.3,2.7-11,5.1-17,5.1c-5.5,0-10.9-2.2-15.6-5.2
		c-20.2-13.2-32.3-37.7-33.9-61.3c-1.3-18.6,3.7-37.5,14-53c-2.6,18.5,2,37.9,12.1,53.6s25.7,27.8,43.3,34.1
		c8.6,3.1,17.6,4.8,26.5,6.5C191.5,236.8,191.4,236.9,191.3,237z"/>
	
		<linearGradient id="SVGID_4_" gradientUnits="userSpaceOnUse" x1="-746.9103" y1="436.7104" x2="-746.3292" y2="436.5487" gradientTransform="matrix(-365.4647 -1.9649 -1.0988 204.369 -272196.6562 -90513.375)">
		<stop  offset="0.2267" style="stop-color:#0DF9FF"/>
		<stop  offset="0.8813" style="stop-color:#252369"/>
	</linearGradient>
	<path class="st3" d="M247.3,158.1c2.2,11.6,2.8,23.5,2,35.2c-0.4,6-1.4,12.1-4.5,17.2c-2.9,4.7-7.5,8.2-12.5,10.6
		c-21.7,10.5-48.9,8.1-70-2.7c-16.6-8.5-30.2-22.6-38.1-39.4c14.5,11.8,33.5,17.9,52.2,17.4s37.1-7.6,51.6-19.5
		c7.1-5.8,13.2-12.6,19.3-19.3C247.2,157.8,247.2,158,247.3,158.1z"/>
	
		<linearGradient id="SVGID_5_" gradientUnits="userSpaceOnUse" x1="-748.2814" y1="441.0225" x2="-748.5843" y2="440.8608" gradientTransform="matrix(-180.3899 317.8487 177.742 100.8746 -213172.25 193544.0781)">
		<stop  offset="0" style="stop-color:#F0FBFC"/>
		<stop  offset="1" style="stop-color:#B0E7ED"/>
	</linearGradient>
	<path class="st4" d="M204.6,69.3c11.2,3.8,21.9,9,31.7,15.5c5,3.3,9.9,7.1,12.8,12.3c2.7,4.8,3.5,10.6,3.2,16.1
		c-1.5,24.1-16.8,46.7-36.6,59.8c-15.5,10.3-34.4,15.3-53,14c17.4-6.9,32-20.4,40.7-37s11.5-36.1,8.3-54.5c-1.6-9-4.5-17.7-7.4-26.3
		C204.3,69.2,204.4,69.3,204.6,69.3z"/>
	
		<linearGradient id="SVGID_6_" gradientUnits="userSpaceOnUse" x1="-747.1064" y1="445.7791" x2="-747.5038" y2="445.422" gradientTransform="matrix(183.0091 316.3478 176.9027 -102.3393 58066.7109 282078.9375)">
		<stop  offset="8.999008e-02" style="stop-color:#0DF9FF"/>
		<stop  offset="0.2783" style="stop-color:#13C2D9"/>
		<stop  offset="0.5334" style="stop-color:#1B7FA9"/>
		<stop  offset="0.7474" style="stop-color:#204D86"/>
		<stop  offset="0.9093" style="stop-color:#242E71"/>
		<stop  offset="1" style="stop-color:#252369"/>
	</linearGradient>
	<path class="st5" d="M109.4,62.3c8.9-7.7,18.8-14.3,29.4-19.5c5.4-2.6,11.1-4.9,17.1-4.8c5.5,0.1,10.9,2.3,15.5,5.4
		c20,13.4,31.7,38.1,33.1,61.8c1.1,18.6-4.2,37.5-14.7,52.8c2.8-18.5-1.5-37.9-11.4-53.8S153.1,76,135.6,69.5
		c-8.5-3.2-17.5-5-26.4-6.9C109.2,62.5,109.3,62.4,109.4,62.3z"/>
</g>
<g>
	<path d="M437.9,142.4c-2.2-11.6-3-23.5-2.1-35.2c0.4-6,1.3-12.1,4.4-17.2c2.9-4.8,7.5-8.3,12.4-10.7c21.6-10.6,48.9-8.4,70,2.3
		c16.6,8.4,30.3,22.4,38.3,39.2c-14.6-11.7-33.6-17.7-52.3-17.1c-18.7,0.6-37.1,7.8-51.5,19.7c-7,5.8-13.1,12.6-19.2,19.4
		C438,142.6,437.9,142.5,437.9,142.4z"/>
	<path d="M479.5,229.5c-11.1-3.9-21.8-9.3-31.5-15.9c-4.9-3.4-9.8-7.2-12.7-12.4c-2.7-4.9-3.4-10.6-3-16.1
		c1.7-24,17.4-46.5,37.2-59.4c15.6-10.1,34.6-14.9,53.2-13.4c-17.5,6.7-32.2,20.1-41.1,36.5s-11.9,36-8.9,54.4
		c1.5,9,4.3,17.7,7.1,26.4C479.9,229.6,479.8,229.6,479.5,229.5z"/>
	<path d="M576,237c-8.8,7.9-18.6,14.6-29.2,19.9c-5.3,2.7-11,5.1-17,5.1c-5.5,0-10.9-2.2-15.6-5.2c-20.2-13.2-32.3-37.7-33.9-61.3
		c-1.3-18.6,3.7-37.5,14-53c-2.6,18.5,2,37.9,12.1,53.6s25.7,27.8,43.3,34.1c8.6,3.1,17.6,4.8,26.5,6.5
		C576.2,236.8,576,236.9,576,237z"/>
	<path d="M632,158.1c2.2,11.6,2.8,23.5,2,35.2c-0.4,6-1.4,12.1-4.5,17.2c-2.9,4.7-7.5,8.2-12.5,10.6c-21.7,10.5-48.9,8.1-70-2.7
		c-16.6-8.5-30.2-22.6-38.1-39.4c14.5,11.8,33.5,17.9,52.2,17.4s37.1-7.6,51.6-19.5c7.1-5.8,13.2-12.6,19.3-19.3
		C631.8,157.8,631.8,158,632,158.1z"/>
	<path d="M589.2,69.3c11.2,3.8,21.9,9,31.7,15.5c5,3.3,9.9,7.1,12.8,12.3c2.7,4.8,3.5,10.6,3.2,16.1c-1.5,24.1-16.8,46.7-36.6,59.8
		c-15.5,10.3-34.4,15.3-53,14c17.4-6.9,32-20.4,40.7-37s11.5-36.1,8.3-54.5c-1.6-9-4.5-17.7-7.4-26.3C589,69.2,589,69.3,589.2,69.3z
		"/>
	<path d="M494,62.3c8.9-7.7,18.8-14.3,29.4-19.5c5.4-2.6,11.1-4.9,17.1-4.8c5.5,0.1,10.9,2.3,15.5,5.4c20,13.4,31.7,38.1,33.1,61.8
		c1.1,18.6-4.2,37.5-14.7,52.8c2.8-18.5-1.5-37.9-11.4-53.8c-9.9-15.9-25.3-28.2-42.8-34.7c-8.5-3.2-17.5-5-26.4-6.9
		C493.9,62.5,494,62.4,494,62.3z"/>
</g>
<g>
	<path class="st6" d="M52,541.4c-2.2-11.6-3-23.5-2.1-35.2c0.4-6,1.3-12.1,4.4-17.2c2.9-4.8,7.5-8.3,12.4-10.7
		c21.6-10.6,48.9-8.4,70,2.3C153.3,489,167,503,175,519.8c-14.6-11.7-33.6-17.7-52.3-17.1c-18.7,0.6-37.1,7.8-51.5,19.7
		c-7,5.8-13.1,12.6-19.2,19.4C52.1,541.6,52,541.5,52,541.4z"/>
	<path class="st6" d="M93.7,628.5c-11.1-3.9-21.8-9.3-31.5-15.9c-4.9-3.4-9.8-7.2-12.7-12.4c-2.7-4.9-3.4-10.6-3-16.1
		c1.7-24,17.4-46.5,37.2-59.4c15.6-10.1,34.6-14.9,53.2-13.4c-17.5,6.7-32.2,20.1-41.1,36.5c-8.9,16.4-11.9,36-8.9,54.4
		c1.5,9,4.3,17.7,7.1,26.4C94,628.6,93.9,628.6,93.7,628.5z"/>
	<path class="st6" d="M190.1,636c-8.8,7.9-18.6,14.6-29.2,19.9c-5.3,2.7-11,5.1-17,5.1c-5.5,0-10.9-2.2-15.6-5.2
		c-20.2-13.2-32.3-37.7-33.9-61.3c-1.3-18.6,3.7-37.5,14-53c-2.6,18.5,2,37.9,12.1,53.6s25.7,27.8,43.3,34.1
		c8.6,3.1,17.6,4.8,26.5,6.5C190.3,635.8,190.2,635.9,190.1,636z"/>
	<path class="st6" d="M246.1,557.1c2.2,11.6,2.8,23.5,2,35.2c-0.4,6-1.4,12.1-4.5,17.2c-2.9,4.7-7.5,8.2-12.5,10.6
		c-21.7,10.5-48.9,8.1-70-2.7c-16.6-8.5-30.2-22.6-38.1-39.4c14.5,11.8,33.5,17.9,52.2,17.4s37.1-7.6,51.6-19.5
		c7.1-5.8,13.2-12.6,19.3-19.3C246,556.8,246,557,246.1,557.1z"/>
	<path class="st6" d="M203.4,468.3c11.2,3.8,21.9,9,31.7,15.5c5,3.3,9.9,7.1,12.8,12.3c2.7,4.8,3.5,10.6,3.2,16.1
		c-1.5,24.1-16.8,46.7-36.6,59.8c-15.5,10.3-34.4,15.3-53,14c17.4-6.9,32-20.4,40.7-37c8.7-16.6,11.5-36.1,8.3-54.5
		c-1.6-9-4.5-17.7-7.4-26.3C203.1,468.2,203.2,468.3,203.4,468.3z"/>
	<path class="st6" d="M108.2,461.3c8.9-7.7,18.8-14.3,29.4-19.5c5.4-2.6,11.1-4.9,17.1-4.8c5.5,0.1,10.9,2.3,15.5,5.4
		c20,13.4,31.7,38.1,33.1,61.8c1.1,18.6-4.2,37.5-14.7,52.8c2.8-18.5-1.5-37.9-11.4-53.8s-25.3-28.2-42.8-34.7
		c-8.5-3.2-17.5-5-26.4-6.9C108,461.5,108.1,461.4,108.2,461.3z"/>
</g>
</svg>
