<svg xmlns="http://www.w3.org/2000/svg" xmlns:xlink="http://www.w3.org/1999/xlink" width="182" zoomAndPan="magnify" viewBox="0 0 136.5 38.999999" height="52" preserveAspectRatio="xMidYMid meet" version="1.0"><defs><filter x="0%" y="0%" width="100%" height="100%" id="id1"><feColorMatrix values="0 0 0 0 1 0 0 0 0 1 0 0 0 0 1 0 0 0 1 0" color-interpolation-filters="sRGB"/></filter><g/><clipPath id="id2"><path d="M 0 0.0703125 L 136 0.0703125 L 136 38.929688 L 0 38.929688 Z M 0 0.0703125 " clip-rule="nonzero"/></clipPath><mask id="id3"><g filter="url(#id1)"><rect x="-13.65" width="163.8" fill="rgb(0%, 0%, 0%)" y="-3.9" height="46.799999" fill-opacity="0.949"/></g></mask><clipPath id="id4"><path d="M 0.5 3 L 30 3 L 30 25 L 0.5 25 Z M 0.5 3 " clip-rule="nonzero"/></clipPath><clipPath id="id5"><path d="M 27.046875 10.296875 C 27.246094 9.75 27.34375 9.144531 27.332031 8.523438 C 27.300781 5.796875 25.089844 3.53125 22.367188 3.417969 C 20.761719 3.347656 19.296875 4.023438 18.296875 5.105469 C 17.378906 6.105469 15.855469 6.261719 14.714844 5.542969 C 13.179688 4.574219 11.347656 4.050781 9.371094 4.136719 C 4.691406 4.363281 0.902344 8.144531 0.675781 12.816406 C 0.421875 18.0625 4.621094 22.394531 9.824219 22.394531 C 11.332031 22.394531 12.769531 22.027344 14.023438 21.378906 C 15.265625 20.734375 16.773438 21.070312 17.605469 22.195312 C 19.097656 24.222656 21.691406 25.390625 24.496094 24.828125 C 26.90625 24.347656 29.316406 21.929688 29.796875 19.511719 C 30.277344 17.019531 29.402344 14.699219 27.78125 13.179688 C 26.992188 12.464844 26.695312 11.324219 27.046875 10.296875 Z M 19 12.714844 C 18.984375 12.730469 18.984375 12.730469 18.972656 12.746094 C 18.972656 12.730469 18.972656 12.714844 18.972656 12.6875 C 18.972656 12.703125 18.984375 12.714844 19 12.714844 Z M 19 12.714844 " clip-rule="nonzero"/></clipPath><linearGradient x1="-1.14982" gradientTransform="matrix(0.140953, 0, 0, 0.14065, 0.661924, 0.648787)" y1="96.306999" x2="210.10001" gradientUnits="userSpaceOnUse" y2="96.306999" id="id6"><stop stop-opacity="1" stop-color="rgb(100%, 77.598572%, 0%)" offset="0"/><stop stop-opacity="1" stop-color="rgb(100%, 77.487183%, 0.0564575%)" offset="0.015625"/><stop stop-opacity="1" stop-color="rgb(100%, 77.204895%, 0.19989%)" offset="0.03125"/><stop stop-opacity="1" stop-color="rgb(100%, 76.861572%, 0.375366%)" offset="0.046875"/><stop stop-opacity="1" stop-color="rgb(100%, 76.519775%, 0.550842%)" offset="0.0625"/><stop stop-opacity="1" stop-color="rgb(100%, 76.177979%, 0.726318%)" offset="0.078125"/><stop stop-opacity="1" stop-color="rgb(100%, 75.834656%, 0.901794%)" offset="0.09375"/><stop stop-opacity="1" stop-color="rgb(100%, 75.492859%, 1.075745%)" offset="0.109375"/><stop stop-opacity="1" stop-color="rgb(100%, 75.149536%, 1.251221%)" offset="0.125"/><stop stop-opacity="1" stop-color="rgb(100%, 74.807739%, 1.426697%)" offset="0.140625"/><stop stop-opacity="1" stop-color="rgb(100%, 74.464417%, 1.602173%)" offset="0.15625"/><stop stop-opacity="1" stop-color="rgb(100%, 74.12262%, 1.777649%)" offset="0.171875"/><stop stop-opacity="1" stop-color="rgb(100%, 73.780823%, 1.953125%)" offset="0.1875"/><stop stop-opacity="1" stop-color="rgb(100%, 73.4375%, 2.127075%)" offset="0.203125"/><stop stop-opacity="1" stop-color="rgb(100%, 73.095703%, 2.302551%)" offset="0.21875"/><stop stop-opacity="1" stop-color="rgb(100%, 72.75238%, 2.478027%)" offset="0.234375"/><stop stop-opacity="1" stop-color="rgb(100%, 72.410583%, 2.653503%)" offset="0.25"/><stop stop-opacity="1" stop-color="rgb(100%, 72.067261%, 2.828979%)" offset="0.265625"/><stop stop-opacity="1" stop-color="rgb(100%, 71.725464%, 3.00293%)" offset="0.28125"/><stop stop-opacity="1" stop-color="rgb(100%, 71.383667%, 3.178406%)" offset="0.296875"/><stop stop-opacity="1" stop-color="rgb(100%, 71.040344%, 3.353882%)" offset="0.3125"/><stop stop-opacity="1" stop-color="rgb(100%, 70.698547%, 3.529358%)" offset="0.328125"/><stop stop-opacity="1" stop-color="rgb(100%, 70.355225%, 3.704834%)" offset="0.34375"/><stop stop-opacity="1" stop-color="rgb(100%, 70.013428%, 3.88031%)" offset="0.359375"/><stop stop-opacity="1" stop-color="rgb(100%, 69.671631%, 4.05426%)" offset="0.375"/><stop stop-opacity="1" stop-color="rgb(100%, 69.328308%, 4.229736%)" offset="0.390625"/><stop stop-opacity="1" stop-color="rgb(100%, 68.986511%, 4.405212%)" offset="0.40625"/><stop stop-opacity="1" stop-color="rgb(100%, 68.643188%, 4.580688%)" offset="0.421875"/><stop stop-opacity="1" stop-color="rgb(100%, 68.301392%, 4.756165%)" offset="0.4375"/><stop stop-opacity="1" stop-color="rgb(100%, 67.958069%, 4.930115%)" offset="0.453125"/><stop stop-opacity="1" stop-color="rgb(100%, 67.616272%, 5.105591%)" offset="0.46875"/><stop stop-opacity="1" stop-color="rgb(100%, 67.274475%, 5.281067%)" offset="0.484375"/><stop stop-opacity="1" stop-color="rgb(100%, 66.931152%, 5.456543%)" offset="0.5"/><stop stop-opacity="1" stop-color="rgb(100%, 66.589355%, 5.632019%)" offset="0.515625"/><stop stop-opacity="1" stop-color="rgb(100%, 66.246033%, 5.807495%)" offset="0.53125"/><stop stop-opacity="1" stop-color="rgb(100%, 65.904236%, 5.981445%)" offset="0.546875"/><stop stop-opacity="1" stop-color="rgb(100%, 65.560913%, 6.156921%)" offset="0.5625"/><stop stop-opacity="1" stop-color="rgb(100%, 65.219116%, 6.332397%)" offset="0.578125"/><stop stop-opacity="1" stop-color="rgb(100%, 64.877319%, 6.507874%)" offset="0.59375"/><stop stop-opacity="1" stop-color="rgb(100%, 64.533997%, 6.68335%)" offset="0.609375"/><stop stop-opacity="1" stop-color="rgb(100%, 64.1922%, 6.8573%)" offset="0.625"/><stop stop-opacity="1" stop-color="rgb(100%, 63.848877%, 7.032776%)" offset="0.640625"/><stop stop-opacity="1" stop-color="rgb(100%, 63.50708%, 7.208252%)" offset="0.65625"/><stop stop-opacity="1" stop-color="rgb(100%, 63.165283%, 7.383728%)" offset="0.671875"/><stop stop-opacity="1" stop-color="rgb(100%, 62.82196%, 7.559204%)" offset="0.6875"/><stop stop-opacity="1" stop-color="rgb(100%, 62.480164%, 7.73468%)" offset="0.703125"/><stop stop-opacity="1" stop-color="rgb(100%, 62.136841%, 7.90863%)" offset="0.71875"/><stop stop-opacity="1" stop-color="rgb(100%, 61.795044%, 8.084106%)" offset="0.734375"/><stop stop-opacity="1" stop-color="rgb(100%, 61.451721%, 8.259583%)" offset="0.75"/><stop stop-opacity="1" stop-color="rgb(100%, 61.109924%, 8.435059%)" offset="0.765625"/><stop stop-opacity="1" stop-color="rgb(100%, 60.768127%, 8.610535%)" offset="0.78125"/><stop stop-opacity="1" stop-color="rgb(100%, 60.424805%, 8.786011%)" offset="0.796875"/><stop stop-opacity="1" stop-color="rgb(100%, 60.083008%, 8.959961%)" offset="0.8125"/><stop stop-opacity="1" stop-color="rgb(100%, 59.739685%, 9.135437%)" offset="0.828125"/><stop stop-opacity="1" stop-color="rgb(100%, 59.397888%, 9.310913%)" offset="0.84375"/><stop stop-opacity="1" stop-color="rgb(100%, 59.054565%, 9.486389%)" offset="0.859375"/><stop stop-opacity="1" stop-color="rgb(100%, 58.712769%, 9.661865%)" offset="0.875"/><stop stop-opacity="1" stop-color="rgb(100%, 58.370972%, 9.835815%)" offset="0.890625"/><stop stop-opacity="1" stop-color="rgb(100%, 58.027649%, 10.011292%)" offset="0.90625"/><stop stop-opacity="1" stop-color="rgb(100%, 57.685852%, 10.186768%)" offset="0.921875"/><stop stop-opacity="1" stop-color="rgb(100%, 57.342529%, 10.362244%)" offset="0.9375"/><stop stop-opacity="1" stop-color="rgb(100%, 57.000732%, 10.53772%)" offset="0.953125"/><stop stop-opacity="1" stop-color="rgb(100%, 56.65741%, 10.713196%)" offset="0.96875"/><stop stop-opacity="1" stop-color="rgb(100%, 56.292725%, 10.899353%)" offset="1"/></linearGradient><clipPath id="id7"><path d="M 14 0.644531 L 17 0.644531 L 17 4 L 14 4 Z M 14 0.644531 " clip-rule="nonzero"/></clipPath><clipPath id="id8"><path d="M 16.941406 1.984375 C 16.941406 2.164062 16.90625 2.332031 16.839844 2.496094 C 16.773438 2.660156 16.675781 2.804688 16.550781 2.929688 C 16.425781 3.054688 16.28125 3.152344 16.117188 3.21875 C 15.953125 3.289062 15.78125 3.320312 15.601562 3.320312 C 15.425781 3.320312 15.253906 3.289062 15.089844 3.21875 C 14.925781 3.152344 14.78125 3.054688 14.65625 2.929688 C 14.53125 2.804688 14.433594 2.660156 14.367188 2.496094 C 14.296875 2.332031 14.265625 2.164062 14.265625 1.984375 C 14.265625 1.808594 14.296875 1.636719 14.367188 1.472656 C 14.433594 1.308594 14.53125 1.164062 14.65625 1.039062 C 14.78125 0.914062 14.925781 0.816406 15.089844 0.75 C 15.253906 0.683594 15.425781 0.648438 15.601562 0.648438 C 15.78125 0.648438 15.953125 0.683594 16.117188 0.75 C 16.28125 0.816406 16.425781 0.914062 16.550781 1.039062 C 16.675781 1.164062 16.773438 1.308594 16.839844 1.472656 C 16.90625 1.636719 16.941406 1.808594 16.941406 1.984375 Z M 16.941406 1.984375 " clip-rule="nonzero"/></clipPath><linearGradient x1="96.5" gradientTransform="matrix(0.140953, 0, 0, 0.14065, 0.661924, 0.648787)" y1="96.306999" x2="115.5" gradientUnits="userSpaceOnUse" y2="96.306999" id="id9"><stop stop-opacity="1" stop-color="rgb(100%, 67.58728%, 5.12085%)" offset="0"/><stop stop-opacity="1" stop-color="rgb(100%, 67.463684%, 5.183411%)" offset="0.125"/><stop stop-opacity="1" stop-color="rgb(100%, 67.218018%, 5.310059%)" offset="0.25"/><stop stop-opacity="1" stop-color="rgb(100%, 66.970825%, 5.436707%)" offset="0.375"/><stop stop-opacity="1" stop-color="rgb(100%, 66.725159%, 5.561829%)" offset="0.5"/><stop stop-opacity="1" stop-color="rgb(100%, 66.477966%, 5.688477%)" offset="0.625"/><stop stop-opacity="1" stop-color="rgb(100%, 66.2323%, 5.813599%)" offset="0.75"/><stop stop-opacity="1" stop-color="rgb(100%, 65.986633%, 5.940247%)" offset="0.875"/><stop stop-opacity="1" stop-color="rgb(100%, 65.739441%, 6.066895%)" offset="1"/></linearGradient><clipPath id="id10"><path d="M 14 22 L 16 22 L 16 25 L 14 25 Z M 14 22 " clip-rule="nonzero"/></clipPath><clipPath id="id11"><path d="M 15.996094 23.492188 C 15.996094 23.726562 15.914062 23.929688 15.746094 24.097656 C 15.578125 24.265625 15.375 24.347656 15.136719 24.347656 C 14.898438 24.347656 14.699219 24.265625 14.53125 24.097656 C 14.363281 23.929688 14.277344 23.726562 14.277344 23.492188 C 14.277344 23.253906 14.363281 23.050781 14.53125 22.882812 C 14.699219 22.714844 14.898438 22.632812 15.136719 22.632812 C 15.375 22.632812 15.578125 22.714844 15.746094 22.882812 C 15.914062 23.050781 15.996094 23.253906 15.996094 23.492188 Z M 15.996094 23.492188 " clip-rule="nonzero"/></clipPath><linearGradient x1="96.599991" gradientTransform="matrix(0.140953, 0, 0, 0.14065, 0.661924, 0.648787)" y1="96.306999" x2="108.799995" gradientUnits="userSpaceOnUse" y2="96.306999" id="id12"><stop stop-opacity="1" stop-color="rgb(100%, 67.578125%, 5.126953%)" offset="0"/><stop stop-opacity="1" stop-color="rgb(100%, 67.419434%, 5.207825%)" offset="0.25"/><stop stop-opacity="1" stop-color="rgb(100%, 67.102051%, 5.369568%)" offset="0.5"/><stop stop-opacity="1" stop-color="rgb(100%, 66.786194%, 5.531311%)" offset="0.75"/><stop stop-opacity="1" stop-color="rgb(100%, 66.468811%, 5.693054%)" offset="1"/></linearGradient><clipPath id="id13"><path d="M 28 8 L 32.671875 8 L 32.671875 13 L 28 13 Z M 28 8 " clip-rule="nonzero"/></clipPath><clipPath id="id14"><path d="M 32.671875 10.496094 C 32.671875 10.792969 32.613281 11.078125 32.5 11.355469 C 32.386719 11.632812 32.222656 11.875 32.011719 12.085938 C 31.800781 12.296875 31.554688 12.460938 31.28125 12.574219 C 31.003906 12.6875 30.714844 12.746094 30.417969 12.746094 C 30.117188 12.746094 29.832031 12.6875 29.554688 12.574219 C 29.277344 12.460938 29.035156 12.296875 28.824219 12.085938 C 28.609375 11.875 28.449219 11.632812 28.332031 11.355469 C 28.21875 11.078125 28.160156 10.792969 28.160156 10.496094 C 28.160156 10.195312 28.21875 9.910156 28.332031 9.632812 C 28.449219 9.355469 28.609375 9.113281 28.824219 8.902344 C 29.035156 8.691406 29.277344 8.53125 29.554688 8.414062 C 29.832031 8.300781 30.117188 8.242188 30.417969 8.242188 C 30.714844 8.242188 31.003906 8.300781 31.28125 8.414062 C 31.554688 8.53125 31.800781 8.691406 32.011719 8.902344 C 32.222656 9.113281 32.386719 9.355469 32.5 9.632812 C 32.613281 9.910156 32.671875 10.195312 32.671875 10.496094 Z M 32.671875 10.496094 " clip-rule="nonzero"/></clipPath><linearGradient x1="195.09999" gradientTransform="matrix(0.140953, 0, 0, 0.14065, 0.661924, 0.648787)" y1="96.306999" x2="227.099987" gradientUnits="userSpaceOnUse" y2="96.306999" id="id15"><stop stop-opacity="1" stop-color="rgb(100%, 57.359314%, 10.354614%)" offset="0"/><stop stop-opacity="1" stop-color="rgb(100%, 57.255554%, 10.40802%)" offset="0.0625"/><stop stop-opacity="1" stop-color="rgb(100%, 57.048035%, 10.513306%)" offset="0.125"/><stop stop-opacity="1" stop-color="rgb(100%, 56.840515%, 10.620117%)" offset="0.1875"/><stop stop-opacity="1" stop-color="rgb(100%, 56.632996%, 10.725403%)" offset="0.25"/><stop stop-opacity="1" stop-color="rgb(100%, 56.425476%, 10.832214%)" offset="0.3125"/><stop stop-opacity="1" stop-color="rgb(100%, 56.217957%, 10.939026%)" offset="0.375"/><stop stop-opacity="1" stop-color="rgb(100%, 56.106567%, 10.995483%)" offset="0.5"/><stop stop-opacity="1" stop-color="rgb(100%, 56.098938%, 10.998535%)" offset="1"/></linearGradient><clipPath id="id16"><rect x="0" width="34" y="0" height="26"/></clipPath></defs><g clip-path="url(#id2)"><path fill="rgb(100%, 100%, 100%)" d="M 0 0.0703125 L 136.5 0.0703125 L 136.5 46.570312 L 0 46.570312 Z M 0 0.0703125 " fill-opacity="1" fill-rule="nonzero"/><path fill="rgb(7.058716%, 7.058716%, 7.058716%)" d="M 0 0.0703125 L 136.5 0.0703125 L 136.5 39.070312 L 0 39.070312 Z M 0 0.0703125 " fill-opacity="1" fill-rule="nonzero"/><path fill="rgb(100%, 100%, 100%)" d="M 0 0.0703125 L 136.5 0.0703125 L 136.5 39.070312 L 0 39.070312 Z M 0 0.0703125 " fill-opacity="1" fill-rule="nonzero"/><path fill="rgb(7.058716%, 7.058716%, 7.058716%)" d="M 0 0.0703125 L 136.5 0.0703125 L 136.5 39.070312 L 0 39.070312 Z M 0 0.0703125 " fill-opacity="1" fill-rule="nonzero"/></g><g mask="url(#id3)"><g transform="matrix(1, 0, 0, 1, 5, 6)"><g clip-path="url(#id16)"><g clip-path="url(#id4)"><g clip-path="url(#id5)"><path fill="url(#id6)" d="M 0.5 3.347656 L 0.5 25.15625 L 30.277344 25.15625 L 30.277344 3.347656 Z M 0.5 3.347656 " fill-rule="nonzero"/></g></g><g clip-path="url(#id7)"><g clip-path="url(#id8)"><path fill="url(#id9)" d="M 14.265625 0.648438 L 14.265625 3.320312 L 16.941406 3.320312 L 16.941406 0.648438 Z M 14.265625 0.648438 " fill-rule="nonzero"/></g></g><g clip-path="url(#id10)"><g clip-path="url(#id11)"><path fill="url(#id12)" d="M 14.277344 22.632812 L 14.277344 24.347656 L 15.996094 24.347656 L 15.996094 22.632812 Z M 14.277344 22.632812 " fill-rule="nonzero"/></g></g><g clip-path="url(#id13)"><g clip-path="url(#id14)"><path fill="url(#id15)" d="M 28.160156 8.242188 L 28.160156 12.746094 L 32.671875 12.746094 L 32.671875 8.242188 Z M 28.160156 8.242188 " fill-rule="nonzero"/></g></g></g></g></g><g fill="rgb(100%, 100%, 100%)" fill-opacity="1"><g transform="translate(46.216051, 25.617285)"><g><path d="M 5.703125 3.78125 L 4.71875 2.296875 C 4.769531 2.234375 4.832031 2.160156 4.90625 2.078125 C 4.976562 1.992188 5.128906 1.828125 5.359375 1.578125 C 5.585938 1.335938 5.8125 1.125 6.03125 0.9375 C 6.25 0.757812 6.503906 0.597656 6.796875 0.453125 C 7.085938 0.304688 7.359375 0.234375 7.609375 0.234375 L 7.609375 0.15625 C 5.484375 -0.25 3.765625 -1.296875 2.453125 -2.984375 C 1.148438 -4.679688 0.5 -6.695312 0.5 -9.03125 C 0.5 -11.65625 1.375 -13.867188 3.125 -15.671875 C 4.875 -17.472656 7 -18.375 9.5 -18.375 C 12 -18.375 14.117188 -17.472656 15.859375 -15.671875 C 17.597656 -13.867188 18.46875 -11.65625 18.46875 -9.03125 C 18.46875 -6.882812 17.890625 -4.992188 16.734375 -3.359375 C 15.578125 -1.734375 14.0625 -0.632812 12.1875 -0.0625 L 12.1875 0.015625 C 12.269531 0.015625 12.65625 0.0820312 13.34375 0.21875 C 14.03125 0.363281 14.578125 0.4375 14.984375 0.4375 C 15.535156 0.4375 16.035156 0.335938 16.484375 0.140625 C 16.941406 -0.0546875 17.257812 -0.25 17.4375 -0.4375 L 17.703125 -0.75 L 18.984375 2.03125 C 18.953125 2.101562 18.90625 2.191406 18.84375 2.296875 C 18.78125 2.410156 18.628906 2.601562 18.390625 2.875 C 18.160156 3.15625 17.898438 3.40625 17.609375 3.625 C 17.328125 3.84375 16.945312 4.039062 16.46875 4.21875 C 16 4.394531 15.5 4.484375 14.96875 4.484375 C 14.070312 4.484375 12.984375 4.195312 11.703125 3.625 C 10.421875 3.0625 9.3125 2.78125 8.375 2.78125 C 7.863281 2.78125 7.382812 2.863281 6.9375 3.03125 C 6.5 3.195312 6.1875 3.367188 6 3.546875 Z M 4.9375 -9.03125 C 4.9375 -8.332031 5.015625 -7.679688 5.171875 -7.078125 C 5.335938 -6.472656 5.59375 -5.921875 5.9375 -5.421875 C 6.28125 -4.929688 6.753906 -4.539062 7.359375 -4.25 C 7.960938 -3.96875 8.675781 -3.828125 9.5 -3.828125 C 11.03125 -3.828125 12.164062 -4.320312 12.90625 -5.3125 C 13.644531 -6.300781 14.015625 -7.539062 14.015625 -9.03125 C 14.015625 -10.507812 13.632812 -11.742188 12.875 -12.734375 C 12.125 -13.734375 11 -14.234375 9.5 -14.234375 C 8.007812 -14.234375 6.875 -13.726562 6.09375 -12.71875 C 5.320312 -11.71875 4.9375 -10.488281 4.9375 -9.03125 Z M 4.9375 -9.03125 "/></g></g></g><g fill="rgb(100%, 100%, 100%)" fill-opacity="1"><g transform="translate(65.183174, 25.617285)"><g><path d="M 4.96875 -11.21875 L 4.96875 -5.890625 C 4.96875 -4.773438 5.132812 -3.984375 5.46875 -3.515625 C 5.800781 -3.054688 6.367188 -2.828125 7.171875 -2.828125 C 7.972656 -2.828125 8.539062 -3.054688 8.875 -3.515625 C 9.21875 -3.984375 9.390625 -4.773438 9.390625 -5.890625 L 9.390625 -11.21875 L 13.25 -11.21875 L 13.25 -4.9375 C 13.25 -3.070312 12.765625 -1.726562 11.796875 -0.90625 C 10.828125 -0.0820312 9.285156 0.328125 7.171875 0.328125 C 5.054688 0.328125 3.515625 -0.0820312 2.546875 -0.90625 C 1.578125 -1.726562 1.09375 -3.070312 1.09375 -4.9375 L 1.09375 -11.21875 Z M 4.96875 -11.21875 "/></g></g></g><g fill="rgb(100%, 100%, 100%)" fill-opacity="1"><g transform="translate(79.534309, 25.617285)"><g><path d="M 2.078125 -1.390625 C 1.023438 -2.535156 0.5 -3.9375 0.5 -5.59375 C 0.5 -7.257812 1.023438 -8.664062 2.078125 -9.8125 C 3.128906 -10.96875 4.460938 -11.546875 6.078125 -11.546875 C 7.566406 -11.546875 8.789062 -11.082031 9.75 -10.15625 L 9.75 -11.21875 L 13.625 -11.21875 L 13.625 0 L 9.796875 0 L 9.796875 -1.265625 L 9.75 -1.265625 C 8.789062 -0.203125 7.566406 0.328125 6.078125 0.328125 C 4.460938 0.328125 3.128906 -0.242188 2.078125 -1.390625 Z M 5.359375 -7.5 C 4.859375 -7.007812 4.609375 -6.375 4.609375 -5.59375 C 4.609375 -4.820312 4.847656 -4.191406 5.328125 -3.703125 C 5.816406 -3.210938 6.453125 -2.96875 7.234375 -2.96875 C 7.992188 -2.96875 8.617188 -3.21875 9.109375 -3.71875 C 9.597656 -4.21875 9.84375 -4.84375 9.84375 -5.59375 C 9.84375 -6.375 9.585938 -7.007812 9.078125 -7.5 C 8.578125 -8 7.960938 -8.25 7.234375 -8.25 C 6.492188 -8.25 5.867188 -8 5.359375 -7.5 Z M 5.359375 -7.5 "/></g></g></g><g fill="rgb(100%, 100%, 100%)" fill-opacity="1"><g transform="translate(94.476117, 25.617285)"><g><path d="M 6.1875 -11.546875 C 6.832031 -11.546875 7.46875 -11.472656 8.09375 -11.328125 C 8.71875 -11.179688 9.1875 -11.035156 9.5 -10.890625 L 9.953125 -10.671875 L 8.6875 -8.140625 C 7.8125 -8.609375 6.976562 -8.84375 6.1875 -8.84375 C 5.75 -8.84375 5.4375 -8.789062 5.25 -8.6875 C 5.070312 -8.59375 4.984375 -8.414062 4.984375 -8.15625 C 4.984375 -8.101562 4.988281 -8.046875 5 -7.984375 C 5.019531 -7.921875 5.050781 -7.863281 5.09375 -7.8125 C 5.132812 -7.769531 5.171875 -7.726562 5.203125 -7.6875 C 5.242188 -7.65625 5.304688 -7.613281 5.390625 -7.5625 C 5.484375 -7.519531 5.554688 -7.488281 5.609375 -7.46875 C 5.660156 -7.445312 5.742188 -7.414062 5.859375 -7.375 C 5.972656 -7.332031 6.0625 -7.296875 6.125 -7.265625 C 6.1875 -7.242188 6.285156 -7.210938 6.421875 -7.171875 C 6.554688 -7.128906 6.660156 -7.101562 6.734375 -7.09375 C 7.191406 -6.957031 7.585938 -6.804688 7.921875 -6.640625 C 8.253906 -6.484375 8.601562 -6.265625 8.96875 -5.984375 C 9.34375 -5.710938 9.632812 -5.363281 9.84375 -4.9375 C 10.050781 -4.519531 10.15625 -4.039062 10.15625 -3.5 C 10.15625 -0.945312 8.378906 0.328125 4.828125 0.328125 C 4.023438 0.328125 3.265625 0.203125 2.546875 -0.046875 C 1.828125 -0.296875 1.304688 -0.539062 0.984375 -0.78125 L 0.5 -1.1875 L 2.078125 -3.828125 C 2.191406 -3.722656 2.34375 -3.601562 2.53125 -3.46875 C 2.726562 -3.332031 3.070312 -3.140625 3.5625 -2.890625 C 4.0625 -2.648438 4.492188 -2.53125 4.859375 -2.53125 C 5.660156 -2.53125 6.0625 -2.800781 6.0625 -3.34375 C 6.0625 -3.59375 5.957031 -3.785156 5.75 -3.921875 C 5.550781 -4.066406 5.207031 -4.222656 4.71875 -4.390625 C 4.226562 -4.566406 3.84375 -4.726562 3.5625 -4.875 C 2.863281 -5.238281 2.3125 -5.648438 1.90625 -6.109375 C 1.5 -6.566406 1.296875 -7.175781 1.296875 -7.9375 C 1.296875 -9.070312 1.734375 -9.957031 2.609375 -10.59375 C 3.492188 -11.226562 4.6875 -11.546875 6.1875 -11.546875 Z M 6.1875 -11.546875 "/></g></g></g><g fill="rgb(100%, 100%, 100%)" fill-opacity="1"><g transform="translate(105.23947, 25.617285)"><g><path d="M 2.078125 -1.390625 C 1.023438 -2.535156 0.5 -3.9375 0.5 -5.59375 C 0.5 -7.257812 1.023438 -8.664062 2.078125 -9.8125 C 3.128906 -10.96875 4.460938 -11.546875 6.078125 -11.546875 C 7.566406 -11.546875 8.789062 -11.082031 9.75 -10.15625 L 9.75 -11.21875 L 13.625 -11.21875 L 13.625 0 L 9.796875 0 L 9.796875 -1.265625 L 9.75 -1.265625 C 8.789062 -0.203125 7.566406 0.328125 6.078125 0.328125 C 4.460938 0.328125 3.128906 -0.242188 2.078125 -1.390625 Z M 5.359375 -7.5 C 4.859375 -7.007812 4.609375 -6.375 4.609375 -5.59375 C 4.609375 -4.820312 4.847656 -4.191406 5.328125 -3.703125 C 5.816406 -3.210938 6.453125 -2.96875 7.234375 -2.96875 C 7.992188 -2.96875 8.617188 -3.21875 9.109375 -3.71875 C 9.597656 -4.21875 9.84375 -4.84375 9.84375 -5.59375 C 9.84375 -6.375 9.585938 -7.007812 9.078125 -7.5 C 8.578125 -8 7.960938 -8.25 7.234375 -8.25 C 6.492188 -8.25 5.867188 -8 5.359375 -7.5 Z M 5.359375 -7.5 "/></g></g></g><g fill="rgb(100%, 100%, 100%)" fill-opacity="1"><g transform="translate(120.181278, 25.617285)"><g><path d="M 1.3125 0 L 1.3125 -11.21875 L 5.1875 -11.21875 L 5.1875 -9.609375 L 5.234375 -9.609375 C 5.253906 -9.660156 5.296875 -9.726562 5.359375 -9.8125 C 5.429688 -9.90625 5.578125 -10.0625 5.796875 -10.28125 C 6.015625 -10.5 6.25 -10.695312 6.5 -10.875 C 6.75 -11.050781 7.066406 -11.207031 7.453125 -11.34375 C 7.847656 -11.476562 8.25 -11.546875 8.65625 -11.546875 C 9.082031 -11.546875 9.5 -11.488281 9.90625 -11.375 C 10.3125 -11.257812 10.613281 -11.144531 10.8125 -11.03125 L 11.109375 -10.84375 L 9.5 -7.5625 C 9.007812 -7.976562 8.335938 -8.1875 7.484375 -8.1875 C 7.015625 -8.1875 6.613281 -8.082031 6.28125 -7.875 C 5.945312 -7.664062 5.707031 -7.414062 5.5625 -7.125 C 5.425781 -6.832031 5.328125 -6.582031 5.265625 -6.375 C 5.210938 -6.175781 5.1875 -6.019531 5.1875 -5.90625 L 5.1875 0 Z M 1.3125 0 "/></g></g></g></svg>