<svg xmlns="http://www.w3.org/2000/svg" xmlns:xlink="http://www.w3.org/1999/xlink" width="182" zoomAndPan="magnify" viewBox="0 0 136.5 38.999999" height="52" preserveAspectRatio="xMidYMid meet" version="1.0"><defs><g/><clipPath id="id1"><path d="M 0 0.0703125 L 136 0.0703125 L 136 38.929688 L 0 38.929688 Z M 0 0.0703125 " clip-rule="nonzero"/></clipPath><clipPath id="id2"><path d="M 2 2.019531 L 37 2.019531 L 37 37.269531 L 2 37.269531 Z M 2 2.019531 " clip-rule="nonzero"/></clipPath><clipPath id="id3"><path d="M 22.117188 25.804688 C 24.3125 25.804688 25.289062 27.636719 26.753906 29.097656 C 27.484375 29.832031 28.824219 29.832031 29.558594 29.097656 L 33.09375 25.5625 C 33.828125 24.828125 33.828125 23.488281 33.09375 22.757812 L 29.558594 19.21875 C 28.214844 17.878906 26.628906 17.023438 27.726562 16.171875 C 28.214844 15.804688 28.582031 15.558594 29.4375 15.558594 C 30.777344 15.558594 31.265625 16.65625 32.242188 17.511719 C 32.730469 18 33.460938 18 33.949219 17.511719 L 36.144531 15.316406 C 36.632812 14.828125 36.632812 14.097656 36.144531 13.609375 L 33.949219 11.414062 C 33.460938 10.925781 32.730469 10.925781 32.242188 11.414062 C 31.386719 12.265625 30.65625 13.488281 29.4375 13.488281 C 28.214844 13.488281 27.484375 12.265625 26.628906 11.414062 C 26.144531 10.925781 25.410156 10.925781 24.921875 11.414062 L 22.726562 13.609375 C 22.238281 14.097656 22.238281 14.828125 22.726562 15.316406 C 24.558594 17.144531 27.605469 18.242188 26.144531 19.949219 C 25.046875 21.292969 23.824219 22.757812 22.117188 22.757812 C 20.042969 22.757812 18.824219 20.683594 17.359375 19.21875 C 16.628906 18.488281 15.289062 18.488281 14.554688 19.21875 L 13.703125 20.074219 L 11.019531 22.757812 C 10.285156 23.488281 10.285156 24.828125 11.019531 25.5625 L 14.554688 29.097656 C 15.289062 29.832031 16.628906 29.832031 17.359375 29.097656 C 18.945312 27.511719 19.800781 25.804688 22.117188 25.804688 Z M 18.457031 12.023438 L 25.289062 18.851562 C 24.433594 19.949219 23.214844 21.292969 22.117188 21.292969 C 20.652344 21.292969 19.191406 19.097656 18.214844 18.121094 C 16.996094 16.902344 14.921875 16.902344 13.578125 18.121094 L 10.042969 21.660156 C 8.824219 22.878906 8.824219 24.953125 10.042969 26.292969 L 13.578125 29.832031 C 14.800781 31.050781 16.871094 31.050781 18.214844 29.832031 C 19.3125 28.734375 20.410156 26.902344 22.117188 26.902344 C 23.460938 26.902344 24.433594 28.125 25.289062 29.222656 L 18.457031 36.050781 C 16.996094 37.515625 14.675781 37.515625 13.214844 36.050781 L 3.820312 26.660156 C 2.359375 25.195312 2.359375 22.878906 3.820312 21.414062 L 13.214844 12.023438 C 14.675781 10.558594 16.996094 10.558594 18.457031 12.023438 Z M 30.898438 4.828125 L 32.242188 6.167969 C 32.605469 6.535156 33.21875 6.535156 33.582031 6.167969 L 34.925781 4.828125 C 35.289062 4.460938 35.289062 3.851562 34.925781 3.484375 L 33.582031 2.144531 C 33.21875 1.777344 32.605469 1.777344 32.242188 2.144531 L 30.898438 3.484375 C 30.535156 3.851562 30.535156 4.460938 30.898438 4.828125 Z M 30.898438 4.828125 " clip-rule="evenodd"/></clipPath><linearGradient x1="0.115" gradientTransform="matrix(12.197231, 0, 0, 12.197231, 2.602093, 2.021167)" y1="3.025" x2="2.965" gradientUnits="userSpaceOnUse" y2="0.175" id="id4"><stop stop-opacity="1" stop-color="rgb(0%, 39.199829%, 60.398865%)" offset="0"/><stop stop-opacity="1" stop-color="rgb(0%, 39.199829%, 60.398865%)" offset="0.125"/><stop stop-opacity="1" stop-color="rgb(0%, 39.199829%, 60.398865%)" offset="0.15625"/><stop stop-opacity="1" stop-color="rgb(0%, 39.280701%, 60.450745%)" offset="0.171875"/><stop stop-opacity="1" stop-color="rgb(0%, 39.732361%, 60.746765%)" offset="0.175781"/><stop stop-opacity="1" stop-color="rgb(0%, 40.104675%, 60.98938%)" offset="0.179688"/><stop stop-opacity="1" stop-color="rgb(0%, 40.47699%, 61.230469%)" offset="0.183594"/><stop stop-opacity="1" stop-color="rgb(0%, 40.849304%, 61.473083%)" offset="0.1875"/><stop stop-opacity="1" stop-color="rgb(0%, 41.220093%, 61.715698%)" offset="0.191406"/><stop stop-opacity="1" stop-color="rgb(0%, 41.592407%, 61.958313%)" offset="0.195313"/><stop stop-opacity="1" stop-color="rgb(0%, 41.964722%, 62.199402%)" offset="0.199219"/><stop stop-opacity="1" stop-color="rgb(0%, 42.337036%, 62.442017%)" offset="0.203125"/><stop stop-opacity="1" stop-color="rgb(0%, 42.707825%, 62.684631%)" offset="0.207031"/><stop stop-opacity="1" stop-color="rgb(0%, 43.080139%, 62.927246%)" offset="0.210938"/><stop stop-opacity="1" stop-color="rgb(0%, 43.450928%, 63.168335%)" offset="0.214844"/><stop stop-opacity="1" stop-color="rgb(0%, 43.823242%, 63.41095%)" offset="0.21875"/><stop stop-opacity="1" stop-color="rgb(0%, 44.195557%, 63.653564%)" offset="0.222656"/><stop stop-opacity="1" stop-color="rgb(0%, 44.567871%, 63.896179%)" offset="0.226562"/><stop stop-opacity="1" stop-color="rgb(0%, 44.93866%, 64.137268%)" offset="0.230469"/><stop stop-opacity="1" stop-color="rgb(0%, 45.310974%, 64.379883%)" offset="0.234375"/><stop stop-opacity="1" stop-color="rgb(0%, 45.683289%, 64.622498%)" offset="0.238281"/><stop stop-opacity="1" stop-color="rgb(0%, 46.055603%, 64.865112%)" offset="0.242188"/><stop stop-opacity="1" stop-color="rgb(0%, 46.426392%, 65.106201%)" offset="0.246094"/><stop stop-opacity="1" stop-color="rgb(0%, 46.798706%, 65.348816%)" offset="0.25"/><stop stop-opacity="1" stop-color="rgb(0%, 47.171021%, 65.591431%)" offset="0.253906"/><stop stop-opacity="1" stop-color="rgb(0%, 47.543335%, 65.834045%)" offset="0.257813"/><stop stop-opacity="1" stop-color="rgb(0%, 47.914124%, 66.075134%)" offset="0.261719"/><stop stop-opacity="1" stop-color="rgb(0%, 48.286438%, 66.317749%)" offset="0.265625"/><stop stop-opacity="1" stop-color="rgb(0%, 48.658752%, 66.560364%)" offset="0.269531"/><stop stop-opacity="1" stop-color="rgb(0%, 49.031067%, 66.802979%)" offset="0.273438"/><stop stop-opacity="1" stop-color="rgb(0%, 49.401855%, 67.044067%)" offset="0.277344"/><stop stop-opacity="1" stop-color="rgb(0%, 49.77417%, 67.286682%)" offset="0.28125"/><stop stop-opacity="1" stop-color="rgb(0%, 50.146484%, 67.529297%)" offset="0.285156"/><stop stop-opacity="1" stop-color="rgb(0%, 50.518799%, 67.771912%)" offset="0.289062"/><stop stop-opacity="1" stop-color="rgb(0%, 50.889587%, 68.013%)" offset="0.292969"/><stop stop-opacity="1" stop-color="rgb(0%, 51.261902%, 68.255615%)" offset="0.296875"/><stop stop-opacity="1" stop-color="rgb(0%, 51.634216%, 68.49823%)" offset="0.300781"/><stop stop-opacity="1" stop-color="rgb(0%, 52.006531%, 68.740845%)" offset="0.304688"/><stop stop-opacity="1" stop-color="rgb(0%, 52.377319%, 68.981934%)" offset="0.308594"/><stop stop-opacity="1" stop-color="rgb(0%, 52.749634%, 69.224548%)" offset="0.3125"/><stop stop-opacity="1" stop-color="rgb(0%, 53.121948%, 69.467163%)" offset="0.316406"/><stop stop-opacity="1" stop-color="rgb(0%, 53.494263%, 69.709778%)" offset="0.320312"/><stop stop-opacity="1" stop-color="rgb(0%, 53.865051%, 69.950867%)" offset="0.324219"/><stop stop-opacity="1" stop-color="rgb(0%, 54.237366%, 70.193481%)" offset="0.328125"/><stop stop-opacity="1" stop-color="rgb(0%, 54.60968%, 70.436096%)" offset="0.332031"/><stop stop-opacity="1" stop-color="rgb(0%, 54.981995%, 70.678711%)" offset="0.335938"/><stop stop-opacity="1" stop-color="rgb(0%, 55.352783%, 70.9198%)" offset="0.339844"/><stop stop-opacity="1" stop-color="rgb(0%, 55.725098%, 71.162415%)" offset="0.34375"/><stop stop-opacity="1" stop-color="rgb(0%, 56.095886%, 71.405029%)" offset="0.347656"/><stop stop-opacity="1" stop-color="rgb(0%, 56.468201%, 71.647644%)" offset="0.351562"/><stop stop-opacity="1" stop-color="rgb(0%, 56.840515%, 71.888733%)" offset="0.355469"/><stop stop-opacity="1" stop-color="rgb(0%, 57.21283%, 72.131348%)" offset="0.359375"/><stop stop-opacity="1" stop-color="rgb(0%, 57.583618%, 72.373962%)" offset="0.363281"/><stop stop-opacity="1" stop-color="rgb(0%, 57.955933%, 72.616577%)" offset="0.367187"/><stop stop-opacity="1" stop-color="rgb(0%, 58.328247%, 72.857666%)" offset="0.371094"/><stop stop-opacity="1" stop-color="rgb(0%, 58.700562%, 73.100281%)" offset="0.375"/><stop stop-opacity="1" stop-color="rgb(0%, 59.07135%, 73.342896%)" offset="0.378906"/><stop stop-opacity="1" stop-color="rgb(0%, 59.443665%, 73.58551%)" offset="0.382813"/><stop stop-opacity="1" stop-color="rgb(0%, 59.815979%, 73.826599%)" offset="0.386719"/><stop stop-opacity="1" stop-color="rgb(0%, 60.188293%, 74.069214%)" offset="0.390625"/><stop stop-opacity="1" stop-color="rgb(0%, 60.559082%, 74.311829%)" offset="0.394531"/><stop stop-opacity="1" stop-color="rgb(0%, 60.931396%, 74.554443%)" offset="0.398438"/><stop stop-opacity="1" stop-color="rgb(0%, 61.303711%, 74.795532%)" offset="0.402344"/><stop stop-opacity="1" stop-color="rgb(0%, 61.676025%, 75.038147%)" offset="0.40625"/><stop stop-opacity="1" stop-color="rgb(0%, 62.046814%, 75.280762%)" offset="0.410156"/><stop stop-opacity="1" stop-color="rgb(0%, 62.419128%, 75.523376%)" offset="0.414063"/><stop stop-opacity="1" stop-color="rgb(0%, 62.791443%, 75.764465%)" offset="0.417969"/><stop stop-opacity="1" stop-color="rgb(0%, 63.163757%, 76.00708%)" offset="0.421875"/><stop stop-opacity="1" stop-color="rgb(0%, 63.534546%, 76.249695%)" offset="0.425781"/><stop stop-opacity="1" stop-color="rgb(0%, 63.90686%, 76.49231%)" offset="0.429688"/><stop stop-opacity="1" stop-color="rgb(0%, 64.279175%, 76.733398%)" offset="0.433594"/><stop stop-opacity="1" stop-color="rgb(0%, 64.651489%, 76.976013%)" offset="0.4375"/><stop stop-opacity="1" stop-color="rgb(0%, 65.022278%, 77.218628%)" offset="0.441406"/><stop stop-opacity="1" stop-color="rgb(0%, 65.394592%, 77.461243%)" offset="0.445313"/><stop stop-opacity="1" stop-color="rgb(0%, 65.766907%, 77.702332%)" offset="0.449219"/><stop stop-opacity="1" stop-color="rgb(0%, 66.139221%, 77.944946%)" offset="0.453125"/><stop stop-opacity="1" stop-color="rgb(0%, 66.51001%, 78.187561%)" offset="0.457031"/><stop stop-opacity="1" stop-color="rgb(0%, 66.882324%, 78.430176%)" offset="0.460938"/><stop stop-opacity="1" stop-color="rgb(0%, 67.253113%, 78.671265%)" offset="0.464844"/><stop stop-opacity="1" stop-color="rgb(0%, 67.625427%, 78.913879%)" offset="0.46875"/><stop stop-opacity="1" stop-color="rgb(0%, 67.997742%, 79.156494%)" offset="0.472656"/><stop stop-opacity="1" stop-color="rgb(0%, 68.370056%, 79.399109%)" offset="0.476563"/><stop stop-opacity="1" stop-color="rgb(0%, 68.740845%, 79.640198%)" offset="0.480469"/><stop stop-opacity="1" stop-color="rgb(0%, 69.113159%, 79.882812%)" offset="0.484375"/><stop stop-opacity="1" stop-color="rgb(0%, 69.485474%, 80.125427%)" offset="0.488281"/><stop stop-opacity="1" stop-color="rgb(0%, 69.857788%, 80.368042%)" offset="0.492188"/><stop stop-opacity="1" stop-color="rgb(0%, 70.228577%, 80.609131%)" offset="0.496094"/><stop stop-opacity="1" stop-color="rgb(0%, 70.600891%, 80.851746%)" offset="0.5"/><stop stop-opacity="1" stop-color="rgb(0%, 70.973206%, 81.09436%)" offset="0.503906"/><stop stop-opacity="1" stop-color="rgb(0%, 71.34552%, 81.336975%)" offset="0.507813"/><stop stop-opacity="1" stop-color="rgb(0%, 71.716309%, 81.578064%)" offset="0.511719"/><stop stop-opacity="1" stop-color="rgb(0%, 72.088623%, 81.820679%)" offset="0.515625"/><stop stop-opacity="1" stop-color="rgb(0%, 72.460938%, 82.063293%)" offset="0.519531"/><stop stop-opacity="1" stop-color="rgb(0%, 72.833252%, 82.305908%)" offset="0.523438"/><stop stop-opacity="1" stop-color="rgb(0%, 73.204041%, 82.546997%)" offset="0.527344"/><stop stop-opacity="1" stop-color="rgb(0%, 73.576355%, 82.789612%)" offset="0.53125"/><stop stop-opacity="1" stop-color="rgb(0%, 73.948669%, 83.032227%)" offset="0.535156"/><stop stop-opacity="1" stop-color="rgb(0%, 74.320984%, 83.274841%)" offset="0.539063"/><stop stop-opacity="1" stop-color="rgb(0%, 74.691772%, 83.51593%)" offset="0.542969"/><stop stop-opacity="1" stop-color="rgb(0%, 75.064087%, 83.758545%)" offset="0.546875"/><stop stop-opacity="1" stop-color="rgb(0%, 75.436401%, 84.00116%)" offset="0.550781"/><stop stop-opacity="1" stop-color="rgb(0%, 75.808716%, 84.243774%)" offset="0.554688"/><stop stop-opacity="1" stop-color="rgb(0%, 76.179504%, 84.484863%)" offset="0.558594"/><stop stop-opacity="1" stop-color="rgb(0%, 76.551819%, 84.727478%)" offset="0.5625"/><stop stop-opacity="1" stop-color="rgb(0%, 76.924133%, 84.970093%)" offset="0.566406"/><stop stop-opacity="1" stop-color="rgb(0%, 77.296448%, 85.212708%)" offset="0.570312"/><stop stop-opacity="1" stop-color="rgb(0%, 77.667236%, 85.453796%)" offset="0.574219"/><stop stop-opacity="1" stop-color="rgb(0%, 78.039551%, 85.696411%)" offset="0.578125"/><stop stop-opacity="1" stop-color="rgb(0%, 78.411865%, 85.939026%)" offset="0.582031"/><stop stop-opacity="1" stop-color="rgb(0%, 78.78418%, 86.181641%)" offset="0.585938"/><stop stop-opacity="1" stop-color="rgb(0%, 79.154968%, 86.422729%)" offset="0.589844"/><stop stop-opacity="1" stop-color="rgb(0%, 79.527283%, 86.665344%)" offset="0.59375"/><stop stop-opacity="1" stop-color="rgb(0%, 79.898071%, 86.907959%)" offset="0.597656"/><stop stop-opacity="1" stop-color="rgb(0%, 80.270386%, 87.150574%)" offset="0.601562"/><stop stop-opacity="1" stop-color="rgb(0%, 80.6427%, 87.391663%)" offset="0.605469"/><stop stop-opacity="1" stop-color="rgb(0%, 81.015015%, 87.634277%)" offset="0.609375"/><stop stop-opacity="1" stop-color="rgb(0%, 81.385803%, 87.876892%)" offset="0.613281"/><stop stop-opacity="1" stop-color="rgb(0%, 81.758118%, 88.119507%)" offset="0.617188"/><stop stop-opacity="1" stop-color="rgb(0%, 82.130432%, 88.360596%)" offset="0.621094"/><stop stop-opacity="1" stop-color="rgb(0%, 82.502747%, 88.60321%)" offset="0.625"/><stop stop-opacity="1" stop-color="rgb(0%, 82.873535%, 88.845825%)" offset="0.628906"/><stop stop-opacity="1" stop-color="rgb(0%, 83.24585%, 89.08844%)" offset="0.632812"/><stop stop-opacity="1" stop-color="rgb(0%, 83.618164%, 89.329529%)" offset="0.636719"/><stop stop-opacity="1" stop-color="rgb(0%, 83.990479%, 89.572144%)" offset="0.640625"/><stop stop-opacity="1" stop-color="rgb(0%, 84.361267%, 89.814758%)" offset="0.644531"/><stop stop-opacity="1" stop-color="rgb(0%, 84.733582%, 90.057373%)" offset="0.648438"/><stop stop-opacity="1" stop-color="rgb(0%, 85.105896%, 90.298462%)" offset="0.652344"/><stop stop-opacity="1" stop-color="rgb(0%, 85.47821%, 90.541077%)" offset="0.65625"/><stop stop-opacity="1" stop-color="rgb(0%, 85.848999%, 90.783691%)" offset="0.660156"/><stop stop-opacity="1" stop-color="rgb(0%, 86.221313%, 91.026306%)" offset="0.664062"/><stop stop-opacity="1" stop-color="rgb(0%, 86.593628%, 91.267395%)" offset="0.667969"/><stop stop-opacity="1" stop-color="rgb(0%, 86.965942%, 91.51001%)" offset="0.671875"/><stop stop-opacity="1" stop-color="rgb(0%, 87.336731%, 91.752625%)" offset="0.675781"/><stop stop-opacity="1" stop-color="rgb(0%, 87.709045%, 91.995239%)" offset="0.679688"/><stop stop-opacity="1" stop-color="rgb(0%, 88.08136%, 92.236328%)" offset="0.683594"/><stop stop-opacity="1" stop-color="rgb(0%, 88.453674%, 92.478943%)" offset="0.6875"/><stop stop-opacity="1" stop-color="rgb(0%, 88.824463%, 92.721558%)" offset="0.691406"/><stop stop-opacity="1" stop-color="rgb(0%, 89.196777%, 92.964172%)" offset="0.695312"/><stop stop-opacity="1" stop-color="rgb(0%, 89.569092%, 93.205261%)" offset="0.699219"/><stop stop-opacity="1" stop-color="rgb(0%, 89.941406%, 93.447876%)" offset="0.703125"/><stop stop-opacity="1" stop-color="rgb(0%, 90.312195%, 93.690491%)" offset="0.707031"/><stop stop-opacity="1" stop-color="rgb(0%, 90.684509%, 93.933105%)" offset="0.710938"/><stop stop-opacity="1" stop-color="rgb(0%, 91.055298%, 94.174194%)" offset="0.714844"/><stop stop-opacity="1" stop-color="rgb(0%, 91.427612%, 94.416809%)" offset="0.71875"/><stop stop-opacity="1" stop-color="rgb(0%, 91.799927%, 94.659424%)" offset="0.722656"/><stop stop-opacity="1" stop-color="rgb(0%, 92.172241%, 94.902039%)" offset="0.726562"/><stop stop-opacity="1" stop-color="rgb(0%, 92.54303%, 95.143127%)" offset="0.730469"/><stop stop-opacity="1" stop-color="rgb(0%, 92.915344%, 95.385742%)" offset="0.734375"/><stop stop-opacity="1" stop-color="rgb(0%, 93.287659%, 95.628357%)" offset="0.738281"/><stop stop-opacity="1" stop-color="rgb(0%, 93.659973%, 95.870972%)" offset="0.742188"/><stop stop-opacity="1" stop-color="rgb(0%, 94.030762%, 96.112061%)" offset="0.746094"/><stop stop-opacity="1" stop-color="rgb(0%, 94.403076%, 96.354675%)" offset="0.75"/><stop stop-opacity="1" stop-color="rgb(0%, 94.775391%, 96.59729%)" offset="0.753906"/><stop stop-opacity="1" stop-color="rgb(0%, 95.147705%, 96.839905%)" offset="0.757812"/><stop stop-opacity="1" stop-color="rgb(0%, 95.518494%, 97.080994%)" offset="0.761719"/><stop stop-opacity="1" stop-color="rgb(0%, 95.890808%, 97.323608%)" offset="0.765625"/><stop stop-opacity="1" stop-color="rgb(0%, 96.263123%, 97.566223%)" offset="0.769531"/><stop stop-opacity="1" stop-color="rgb(0%, 96.635437%, 97.808838%)" offset="0.773438"/><stop stop-opacity="1" stop-color="rgb(0%, 97.006226%, 98.049927%)" offset="0.777344"/><stop stop-opacity="1" stop-color="rgb(0%, 97.37854%, 98.292542%)" offset="0.78125"/><stop stop-opacity="1" stop-color="rgb(0%, 97.750854%, 98.535156%)" offset="0.785156"/><stop stop-opacity="1" stop-color="rgb(0%, 98.123169%, 98.777771%)" offset="0.789063"/><stop stop-opacity="1" stop-color="rgb(0%, 98.493958%, 99.01886%)" offset="0.792969"/><stop stop-opacity="1" stop-color="rgb(0%, 98.866272%, 99.261475%)" offset="0.796875"/><stop stop-opacity="1" stop-color="rgb(0%, 99.238586%, 99.504089%)" offset="0.800781"/><stop stop-opacity="1" stop-color="rgb(0%, 99.610901%, 99.746704%)" offset="0.804688"/><stop stop-opacity="1" stop-color="rgb(0%, 99.804688%, 99.873352%)" offset="0.8125"/><stop stop-opacity="1" stop-color="rgb(0%, 100%, 100%)" offset="0.875"/><stop stop-opacity="1" stop-color="rgb(0%, 100%, 100%)" offset="1"/></linearGradient></defs><g clip-path="url(#id1)"><path fill="#ffffff" d="M 0 0.0703125 L 136.5 0.0703125 L 136.5 46.570312 L 0 46.570312 Z M 0 0.0703125 " fill-opacity="1" fill-rule="nonzero"/><path fill="#121212" d="M 0 0.0703125 L 136.5 0.0703125 L 136.5 39.070312 L 0 39.070312 Z M 0 0.0703125 " fill-opacity="1" fill-rule="nonzero"/><path fill="#ffffff" d="M 0 0.0703125 L 136.5 0.0703125 L 136.5 39.070312 L 0 39.070312 Z M 0 0.0703125 " fill-opacity="1" fill-rule="nonzero"/><path fill="#121212" d="M 0 0.0703125 L 136.5 0.0703125 L 136.5 39.070312 L 0 39.070312 Z M 0 0.0703125 " fill-opacity="1" fill-rule="nonzero"/></g><g fill="#ffffff" fill-opacity="1"><g transform="translate(38.706485, 29.040102)"><g><path d="M 10.921875 -3.71875 C 11.546875 -3.71875 12.148438 -3.8125 12.734375 -4 C 13.328125 -4.1875 13.765625 -4.367188 14.046875 -4.546875 L 14.453125 -4.828125 L 16.203125 -1.328125 C 16.148438 -1.285156 16.070312 -1.226562 15.96875 -1.15625 C 15.863281 -1.082031 15.625 -0.945312 15.25 -0.75 C 14.882812 -0.550781 14.488281 -0.378906 14.0625 -0.234375 C 13.644531 -0.0859375 13.09375 0.0390625 12.40625 0.15625 C 11.71875 0.269531 11.007812 0.328125 10.28125 0.328125 C 8.601562 0.328125 7.015625 -0.0820312 5.515625 -0.90625 C 4.015625 -1.726562 2.800781 -2.859375 1.875 -4.296875 C 0.957031 -5.742188 0.5 -7.304688 0.5 -8.984375 C 0.5 -10.253906 0.769531 -11.472656 1.3125 -12.640625 C 1.851562 -13.804688 2.570312 -14.804688 3.46875 -15.640625 C 4.363281 -16.472656 5.410156 -17.132812 6.609375 -17.625 C 7.804688 -18.125 9.03125 -18.375 10.28125 -18.375 C 11.445312 -18.375 12.519531 -18.234375 13.5 -17.953125 C 14.488281 -17.679688 15.1875 -17.40625 15.59375 -17.125 L 16.203125 -16.71875 L 14.453125 -13.21875 C 14.359375 -13.300781 14.207031 -13.40625 14 -13.53125 C 13.789062 -13.65625 13.378906 -13.816406 12.765625 -14.015625 C 12.160156 -14.222656 11.546875 -14.328125 10.921875 -14.328125 C 9.921875 -14.328125 9.023438 -14.164062 8.234375 -13.84375 C 7.453125 -13.519531 6.832031 -13.097656 6.375 -12.578125 C 5.914062 -12.054688 5.566406 -11.488281 5.328125 -10.875 C 5.085938 -10.269531 4.96875 -9.65625 4.96875 -9.03125 C 4.96875 -7.664062 5.476562 -6.4375 6.5 -5.34375 C 7.53125 -4.257812 9.003906 -3.71875 10.921875 -3.71875 Z M 10.921875 -3.71875 "/></g></g></g><g fill="#ffffff" fill-opacity="1"><g transform="translate(55.179664, 29.040102)"><g><path d="M 2.078125 -1.390625 C 1.023438 -2.535156 0.5 -3.9375 0.5 -5.59375 C 0.5 -7.257812 1.023438 -8.664062 2.078125 -9.8125 C 3.128906 -10.96875 4.460938 -11.546875 6.078125 -11.546875 C 7.566406 -11.546875 8.789062 -11.082031 9.75 -10.15625 L 9.75 -11.21875 L 13.625 -11.21875 L 13.625 0 L 9.796875 0 L 9.796875 -1.265625 L 9.75 -1.265625 C 8.789062 -0.203125 7.566406 0.328125 6.078125 0.328125 C 4.460938 0.328125 3.128906 -0.242188 2.078125 -1.390625 Z M 5.359375 -7.5 C 4.859375 -7.007812 4.609375 -6.375 4.609375 -5.59375 C 4.609375 -4.820312 4.847656 -4.191406 5.328125 -3.703125 C 5.816406 -3.210938 6.453125 -2.96875 7.234375 -2.96875 C 7.992188 -2.96875 8.617188 -3.21875 9.109375 -3.71875 C 9.597656 -4.21875 9.84375 -4.84375 9.84375 -5.59375 C 9.84375 -6.375 9.585938 -7.007812 9.078125 -7.5 C 8.578125 -8 7.960938 -8.25 7.234375 -8.25 C 6.492188 -8.25 5.867188 -8 5.359375 -7.5 Z M 5.359375 -7.5 "/></g></g></g><g fill="#ffffff" fill-opacity="1"><g transform="translate(70.121472, 29.040102)"><g><path d="M 6.1875 -11.546875 C 6.832031 -11.546875 7.46875 -11.472656 8.09375 -11.328125 C 8.71875 -11.179688 9.1875 -11.035156 9.5 -10.890625 L 9.953125 -10.671875 L 8.6875 -8.140625 C 7.8125 -8.609375 6.976562 -8.84375 6.1875 -8.84375 C 5.75 -8.84375 5.4375 -8.789062 5.25 -8.6875 C 5.070312 -8.59375 4.984375 -8.414062 4.984375 -8.15625 C 4.984375 -8.101562 4.988281 -8.046875 5 -7.984375 C 5.019531 -7.921875 5.050781 -7.863281 5.09375 -7.8125 C 5.132812 -7.769531 5.171875 -7.726562 5.203125 -7.6875 C 5.242188 -7.65625 5.304688 -7.613281 5.390625 -7.5625 C 5.484375 -7.519531 5.554688 -7.488281 5.609375 -7.46875 C 5.660156 -7.445312 5.742188 -7.414062 5.859375 -7.375 C 5.972656 -7.332031 6.0625 -7.296875 6.125 -7.265625 C 6.1875 -7.242188 6.285156 -7.210938 6.421875 -7.171875 C 6.554688 -7.128906 6.660156 -7.101562 6.734375 -7.09375 C 7.191406 -6.957031 7.585938 -6.804688 7.921875 -6.640625 C 8.253906 -6.484375 8.601562 -6.265625 8.96875 -5.984375 C 9.34375 -5.710938 9.632812 -5.363281 9.84375 -4.9375 C 10.050781 -4.519531 10.15625 -4.039062 10.15625 -3.5 C 10.15625 -0.945312 8.378906 0.328125 4.828125 0.328125 C 4.023438 0.328125 3.265625 0.203125 2.546875 -0.046875 C 1.828125 -0.296875 1.304688 -0.539062 0.984375 -0.78125 L 0.5 -1.1875 L 2.078125 -3.828125 C 2.191406 -3.722656 2.34375 -3.601562 2.53125 -3.46875 C 2.726562 -3.332031 3.070312 -3.140625 3.5625 -2.890625 C 4.0625 -2.648438 4.492188 -2.53125 4.859375 -2.53125 C 5.660156 -2.53125 6.0625 -2.800781 6.0625 -3.34375 C 6.0625 -3.59375 5.957031 -3.785156 5.75 -3.921875 C 5.550781 -4.066406 5.207031 -4.222656 4.71875 -4.390625 C 4.226562 -4.566406 3.84375 -4.726562 3.5625 -4.875 C 2.863281 -5.238281 2.3125 -5.648438 1.90625 -6.109375 C 1.5 -6.566406 1.296875 -7.175781 1.296875 -7.9375 C 1.296875 -9.070312 1.734375 -9.957031 2.609375 -10.59375 C 3.492188 -11.226562 4.6875 -11.546875 6.1875 -11.546875 Z M 6.1875 -11.546875 "/></g></g></g><g fill="#ffffff" fill-opacity="1"><g transform="translate(80.884825, 29.040102)"><g><path d="M 7.28125 -8.375 C 6.550781 -8.375 5.921875 -8.101562 5.390625 -7.5625 C 4.867188 -7.03125 4.609375 -6.382812 4.609375 -5.625 C 4.609375 -4.851562 4.867188 -4.195312 5.390625 -3.65625 C 5.921875 -3.113281 6.550781 -2.84375 7.28125 -2.84375 C 7.632812 -2.84375 7.96875 -2.882812 8.28125 -2.96875 C 8.59375 -3.0625 8.820312 -3.148438 8.96875 -3.234375 L 9.171875 -3.375 L 10.484375 -0.671875 C 10.378906 -0.597656 10.234375 -0.503906 10.046875 -0.390625 C 9.867188 -0.285156 9.453125 -0.140625 8.796875 0.046875 C 8.148438 0.234375 7.457031 0.328125 6.71875 0.328125 C 5.070312 0.328125 3.625 -0.25 2.375 -1.40625 C 1.125 -2.570312 0.5 -3.960938 0.5 -5.578125 C 0.5 -7.210938 1.125 -8.613281 2.375 -9.78125 C 3.625 -10.957031 5.070312 -11.546875 6.71875 -11.546875 C 7.457031 -11.546875 8.140625 -11.457031 8.765625 -11.28125 C 9.398438 -11.113281 9.847656 -10.941406 10.109375 -10.765625 L 10.484375 -10.5 L 9.171875 -7.859375 C 8.679688 -8.203125 8.050781 -8.375 7.28125 -8.375 Z M 7.28125 -8.375 "/></g></g></g><g fill="#ffffff" fill-opacity="1"><g transform="translate(91.6263, 29.040102)"><g><path d="M 2.078125 -1.390625 C 1.023438 -2.535156 0.5 -3.9375 0.5 -5.59375 C 0.5 -7.257812 1.023438 -8.664062 2.078125 -9.8125 C 3.128906 -10.96875 4.460938 -11.546875 6.078125 -11.546875 C 7.566406 -11.546875 8.789062 -11.082031 9.75 -10.15625 L 9.75 -11.21875 L 13.625 -11.21875 L 13.625 0 L 9.796875 0 L 9.796875 -1.265625 L 9.75 -1.265625 C 8.789062 -0.203125 7.566406 0.328125 6.078125 0.328125 C 4.460938 0.328125 3.128906 -0.242188 2.078125 -1.390625 Z M 5.359375 -7.5 C 4.859375 -7.007812 4.609375 -6.375 4.609375 -5.59375 C 4.609375 -4.820312 4.847656 -4.191406 5.328125 -3.703125 C 5.816406 -3.210938 6.453125 -2.96875 7.234375 -2.96875 C 7.992188 -2.96875 8.617188 -3.21875 9.109375 -3.71875 C 9.597656 -4.21875 9.84375 -4.84375 9.84375 -5.59375 C 9.84375 -6.375 9.585938 -7.007812 9.078125 -7.5 C 8.578125 -8 7.960938 -8.25 7.234375 -8.25 C 6.492188 -8.25 5.867188 -8 5.359375 -7.5 Z M 5.359375 -7.5 "/></g></g></g><g fill="#ffffff" fill-opacity="1"><g transform="translate(106.568108, 29.040102)"><g><path d="M 2.078125 -1.390625 C 1.023438 -2.535156 0.5 -3.9375 0.5 -5.59375 C 0.5 -7.257812 1.023438 -8.664062 2.078125 -9.8125 C 3.128906 -10.96875 4.460938 -11.546875 6.078125 -11.546875 C 7.566406 -11.546875 8.789062 -11.082031 9.75 -10.15625 L 9.75 -18.8125 L 13.625 -18.8125 L 13.625 0 L 9.796875 0 L 9.796875 -1.265625 L 9.75 -1.265625 C 8.789062 -0.203125 7.566406 0.328125 6.078125 0.328125 C 4.460938 0.328125 3.128906 -0.242188 2.078125 -1.390625 Z M 5.359375 -7.5 C 4.859375 -7.007812 4.609375 -6.375 4.609375 -5.59375 C 4.609375 -4.820312 4.847656 -4.191406 5.328125 -3.703125 C 5.816406 -3.210938 6.453125 -2.96875 7.234375 -2.96875 C 7.992188 -2.96875 8.617188 -3.21875 9.109375 -3.71875 C 9.597656 -4.21875 9.84375 -4.84375 9.84375 -5.59375 C 9.84375 -6.375 9.585938 -7.007812 9.078125 -7.5 C 8.578125 -8 7.960938 -8.25 7.234375 -8.25 C 6.492188 -8.25 5.867188 -8 5.359375 -7.5 Z M 5.359375 -7.5 "/></g></g></g><g fill="#ffffff" fill-opacity="1"><g transform="translate(121.509916, 29.040102)"><g><path d="M 12.671875 -5.078125 L 4.53125 -5.078125 C 4.53125 -4.285156 4.785156 -3.695312 5.296875 -3.3125 C 5.804688 -2.9375 6.359375 -2.75 6.953125 -2.75 C 7.578125 -2.75 8.070312 -2.832031 8.4375 -3 C 8.800781 -3.175781 9.21875 -3.507812 9.6875 -4 L 12.484375 -2.609375 C 11.316406 -0.648438 9.378906 0.328125 6.671875 0.328125 C 4.984375 0.328125 3.53125 -0.25 2.3125 -1.40625 C 1.101562 -2.570312 0.5 -3.96875 0.5 -5.59375 C 0.5 -7.226562 1.101562 -8.628906 2.3125 -9.796875 C 3.53125 -10.960938 4.984375 -11.546875 6.671875 -11.546875 C 8.453125 -11.546875 9.898438 -11.03125 11.015625 -10 C 12.128906 -8.976562 12.6875 -7.507812 12.6875 -5.59375 C 12.6875 -5.332031 12.679688 -5.160156 12.671875 -5.078125 Z M 4.640625 -7.21875 L 8.90625 -7.21875 C 8.8125 -7.800781 8.578125 -8.25 8.203125 -8.5625 C 7.835938 -8.875 7.363281 -9.03125 6.78125 -9.03125 C 6.132812 -9.03125 5.625 -8.863281 5.25 -8.53125 C 4.875 -8.195312 4.671875 -7.757812 4.640625 -7.21875 Z M 4.640625 -7.21875 "/></g></g></g><g clip-path="url(#id2)"><g clip-path="url(#id3)"><path fill="url(#id4)" d="M 2.359375 2.019531 L 2.359375 37.269531 L 36.632812 37.269531 L 36.632812 2.019531 Z M 2.359375 2.019531 " fill-rule="nonzero"/></g></g></svg>